<svg width="24" height="24" viewBox="0 0 24 24" fill="none" xmlns="http://www.w3.org/2000/svg">
<path d="M17.339 17.339C17.122 17.556 16.775 17.556 16.562 17.339L12 12.777L7.438 17.339C7.221 17.556 6.874 17.556 6.661 17.339C6.444 17.122 6.444 16.775 6.661 16.562L11.223 12L6.661 7.438C6.444 7.221 6.444 6.874 6.661 6.661C6.878 6.444 7.225 6.444 7.438 6.661L12 11.223L16.562 6.661C16.779 6.444 17.126 6.444 17.339 6.661C17.556 6.878 17.556 7.225 17.339 7.438L12.777 12L17.339 16.562C17.556 16.775 17.556 17.126 17.339 17.339Z" fill="black"/>
</svg>
